<?xml version="1.0" standalone="no"?>
<!DOCTYPE svg PUBLIC "-//W3C//DTD SVG 20010904//EN"
 "http://www.w3.org/TR/2001/REC-SVG-20010904/DTD/svg10.dtd">
<svg version="1.0" xmlns="http://www.w3.org/2000/svg"
 width="900.000000pt" height="495.000000pt" viewBox="0 0 900.000000 495.000000"
 preserveAspectRatio="xMidYMid meet">
<metadata>
Created by potrace 1.10, written by Peter Selinger 2001-2011
</metadata>
<g transform="translate(0.000000,495.000000) scale(0.100000,-0.100000)"
fill="#a9a9a9" stroke="none">
<path d="M2318 3079 c-17 -9 -18 -49 -18 -615 l0 -604 26 -10 c36 -14 4309
-14 4335 0 18 10 19 28 19 615 0 587 -1 605 -19 615 -27 14 -4319 14 -4343 -1z
m3282 -175 c0 -15 -7 -47 -14 -73 -8 -25 -23 -73 -32 -106 -9 -33 -23 -80 -30
-105 -12 -43 -28 -98 -61 -220 -33 -118 -42 -147 -57 -195 -9 -27 -16 -58 -16
-67 0 -32 -29 -48 -85 -48 -75 0 -82 17 -49 125 9 28 22 70 28 95 20 71 46
161 61 210 7 25 20 74 30 110 10 36 23 85 30 110 18 59 47 162 51 178 2 8 26
12 74 12 69 0 70 0 70 -26z m324 17 c3 -4 -1 -26 -8 -47 -7 -22 -21 -65 -30
-96 -15 -55 -32 -113 -62 -218 -7 -25 -20 -72 -29 -105 -79 -284 -95 -337
-107 -352 -15 -18 -127 -17 -134 0 -4 13 13 85 52 222 8 28 19 66 23 85 5 19
13 49 19 65 5 17 18 59 27 95 10 36 23 85 30 110 8 25 21 72 31 105 9 33 23
79 31 103 l15 42 68 0 c38 0 71 -4 74 -9z m-2889 -280 c22 -10 51 -30 65 -44
14 -15 32 -27 40 -27 8 0 26 12 40 27 33 34 96 63 140 63 35 0 101 -27 130
-52 43 -37 48 -61 52 -222 3 -167 6 -176 56 -176 20 0 22 -5 22 -55 0 -66 -3
-67 -135 -63 l-90 3 -5 190 c-5 196 -11 224 -50 245 -29 15 -83 11 -106 -8
-45 -38 -55 -75 -52 -190 l3 -107 35 -11 c32 -10 35 -15 38 -53 5 -64 -7 -71
-107 -71 -47 0 -91 4 -97 8 -8 5 -13 70 -15 200 l-4 192 -30 25 c-37 30 -77
31 -120 5 -41 -26 -55 -72 -55 -188 0 -106 10 -122 71 -122 l40 0 -3 -57 -3
-58 -160 0 -160 0 -3 57 c-3 55 -2 57 25 60 l28 3 0 160 0 160 -25 4 c-33 4
-38 14 -31 59 l6 37 85 3 c98 3 130 -2 130 -23 0 -17 36 -20 46 -4 11 19 87
49 124 49 19 0 53 -9 75 -19z m1002 1 c66 -22 133 -77 163 -134 18 -35 23 -59
23 -133 0 -107 -20 -155 -89 -213 -62 -51 -116 -71 -199 -71 -126 -2 -219 52
-265 153 -28 63 -28 185 1 250 58 132 218 196 366 148z m2245 1 c52 -20 87
-46 110 -81 15 -23 18 -51 18 -183 l0 -155 36 -32 c28 -25 34 -36 29 -54 -11
-36 -34 -48 -94 -48 -52 0 -56 2 -96 46 l-42 45 -17 -25 c-25 -39 -87 -66
-149 -66 -44 0 -62 5 -96 30 -50 37 -64 69 -59 136 5 54 27 93 68 117 32 18
127 37 205 40 l60 2 3 36 c2 24 -4 43 -19 62 -20 26 -26 28 -82 25 -56 -3 -63
-6 -75 -30 -7 -16 -21 -28 -30 -29 -37 -2 -87 3 -94 10 -4 3 -5 30 -1 59 7 61
14 66 113 93 83 23 158 23 212 2z m-1478 -19 c18 -17 22 -69 6 -79 -5 -3 -56
-59 -112 -123 -56 -64 -105 -119 -108 -122 -3 -3 -19 -22 -34 -42 l-28 -37 24
-6 c13 -3 48 -5 78 -3 52 3 55 5 74 43 23 44 58 55 110 35 26 -9 28 -14 21
-43 -3 -17 -10 -56 -14 -85 -4 -30 -14 -58 -22 -63 -8 -5 -111 -9 -230 -9
-232 0 -231 0 -244 53 -9 34 14 70 120 187 103 114 158 187 150 200 -9 14
-118 13 -138 -3 -10 -6 -21 -26 -25 -42 -8 -28 -12 -30 -60 -33 -39 -2 -54 1
-58 12 -8 21 12 145 27 162 18 22 441 21 463 -2z m304 7 c9 -5 12 -31 10 -92
l-3 -84 -72 -3 -73 -3 0 89 c0 49 3 92 7 95 9 10 115 8 131 -2z m7 -436 l0
-100 -70 0 -70 0 -3 103 -3 103 73 -3 73 -3 0 -100z"/>
<path d="M3870 2516 c-35 -23 -70 -95 -70 -141 0 -44 24 -101 55 -132 27 -27
41 -33 77 -33 83 0 137 66 138 168 0 126 -108 201 -200 138z"/>
<path d="M6096 2311 c-12 -13 -16 -31 -14 -58 3 -34 6 -39 39 -47 46 -11 85 7
116 53 37 55 29 66 -53 69 -59 2 -73 0 -88 -17z"/>
</g>
</svg>
