<?xml version="1.0" standalone="no"?>
<!DOCTYPE svg PUBLIC "-//W3C//DTD SVG 20010904//EN"
 "http://www.w3.org/TR/2001/REC-SVG-20010904/DTD/svg10.dtd">
<svg version="1.0" xmlns="http://www.w3.org/2000/svg"
 width="900.000000pt" height="474.000000pt" viewBox="0 0 900.000000 474.000000"
 preserveAspectRatio="xMidYMid meet">
<metadata>
Created by potrace 1.10, written by Peter Selinger 2001-2011
</metadata>
<g transform="translate(0.000000,474.000000) scale(0.100000,-0.100000)"
fill="#a9a9a9" stroke="none">
<path d="M1605 3512 c-11 -8 -60 -63 -120 -137 -22 -26 -47 -56 -55 -65 -8 -9
-36 -41 -62 -71 l-47 -56 44 -22 c25 -12 47 -26 50 -32 4 -5 14 -9 24 -9 10 0
24 -7 31 -15 7 -8 15 -15 19 -15 4 0 25 24 46 53 58 77 88 107 106 107 9 0 29
-17 45 -37 16 -21 35 -44 44 -53 8 -8 24 -28 35 -43 l20 -28 45 25 c25 14 64
35 88 47 l42 23 -27 30 c-16 17 -33 36 -38 41 -6 6 -28 32 -50 60 -22 27 -47
57 -55 66 -50 55 -69 77 -90 107 -18 24 -31 32 -54 32 -17 0 -35 -4 -41 -8z"/>
<path d="M2285 3189 c-66 -5 -156 -12 -200 -17 l-80 -7 3 -40 c2 -22 8 -45 13
-51 5 -6 12 -28 17 -50 l8 -39 45 5 c24 2 76 5 114 5 l70 0 -1 -65 c0 -36 -2
-87 -5 -115 l-4 -49 35 -6 c19 -4 44 -11 55 -17 11 -5 35 -13 53 -16 34 -7 34
-8 34 53 0 19 6 64 14 100 18 85 19 310 2 310 -7 0 -22 2 -33 4 -11 2 -74 -1
-140 -5z"/>
<path d="M813 3043 c3 -118 22 -304 33 -321 1 -2 28 6 60 17 33 11 70 21 84
23 23 3 25 7 22 43 -2 22 -4 74 -5 115 l-2 75 75 0 c41 0 93 -2 115 -5 39 -5
40 -4 45 30 4 19 11 44 17 55 6 11 13 36 15 55 3 32 1 35 -22 34 -14 -1 -63 5
-110 12 -47 8 -140 14 -208 14 l-123 0 4 -147z"/>
<path d="M6054 2998 c-5 -7 -8 -107 -8 -223 l-1 -210 -23 -3 c-13 -2 -31 3
-40 11 -77 64 -289 63 -412 -2 -31 -17 -110 -100 -110 -117 0 -6 -7 -17 -15
-24 -8 -7 -15 -27 -15 -44 0 -17 -7 -44 -15 -60 -21 -40 -21 -252 0 -303 8
-19 15 -45 15 -57 0 -52 85 -172 142 -201 48 -25 158 -55 199 -55 20 0 58 7
85 15 27 8 57 15 67 15 10 0 35 11 55 25 47 32 74 33 70 3 -3 -22 1 -23 70
-26 l72 -3 0 636 0 635 -64 0 c-40 0 -68 -5 -72 -12z m-197 -504 c60 -11 127
-65 155 -124 32 -69 40 -114 35 -215 -6 -131 -14 -162 -51 -210 -58 -76 -114
-105 -201 -105 -74 0 -124 21 -171 72 -64 71 -69 89 -69 253 1 147 1 151 30
204 17 30 46 67 66 83 34 28 130 60 156 52 6 -1 29 -6 50 -10z"/>
<path d="M7287 2990 c-3 -11 -3 -272 0 -582 4 -468 7 -566 19 -579 8 -8 14
-20 14 -26 0 -6 16 -22 34 -37 31 -23 45 -26 128 -29 l93 -2 0 65 0 65 -54 5
c-50 5 -56 8 -74 40 -19 33 -19 58 -19 558 0 392 -2 524 -11 527 -7 2 -37 6
-69 8 -49 5 -57 3 -61 -13z"/>
<path d="M3827 2950 c-32 -4 -41 -11 -59 -45 -42 -82 -48 -97 -48 -115 0 -9
-7 -23 -15 -30 -8 -7 -15 -25 -15 -40 0 -15 -7 -33 -15 -40 -8 -7 -15 -22 -15
-34 0 -12 -7 -31 -15 -42 -8 -10 -15 -27 -15 -36 0 -9 -6 -29 -14 -45 -8 -15
-22 -46 -31 -68 -10 -22 -24 -53 -31 -68 -8 -16 -14 -35 -14 -44 0 -8 -6 -27
-13 -41 -8 -15 -21 -42 -30 -60 -9 -19 -17 -42 -17 -52 0 -9 -7 -23 -15 -30
-8 -7 -15 -21 -15 -32 0 -11 -6 -32 -13 -46 -8 -15 -21 -42 -30 -60 -9 -19
-17 -41 -17 -51 0 -9 -7 -26 -15 -37 -8 -10 -15 -29 -15 -40 0 -12 -7 -27 -15
-34 -8 -7 -15 -22 -15 -34 0 -12 -7 -32 -16 -44 -27 -39 -14 -47 70 -44 68 3
76 6 76 24 0 11 6 32 13 46 8 15 21 42 30 60 9 19 17 42 17 52 0 9 7 23 15 30
8 7 15 22 15 34 1 51 1 51 272 52 139 1 260 0 269 -2 9 -3 24 -23 34 -47 9
-23 23 -54 31 -69 8 -14 14 -33 14 -41 0 -9 8 -30 17 -49 45 -91 35 -83 117
-86 l75 -3 -11 33 c-6 18 -17 45 -24 60 -8 14 -14 33 -14 41 0 8 -7 20 -15 27
-8 7 -15 22 -15 34 0 11 -7 30 -15 40 -8 11 -15 30 -15 42 0 12 -7 27 -15 34
-8 7 -15 22 -15 34 0 11 -7 30 -15 40 -8 11 -15 30 -15 42 0 12 -7 27 -15 34
-8 7 -15 21 -15 30 0 18 -6 31 -44 108 -9 19 -16 42 -16 52 0 9 -7 23 -15 30
-8 7 -15 24 -15 39 0 14 -7 35 -15 45 -8 11 -15 27 -15 37 0 9 -7 22 -15 29
-8 7 -15 22 -15 34 0 12 -7 31 -15 42 -8 10 -15 27 -15 36 0 9 -8 31 -17 50
-9 18 -22 45 -30 60 -7 14 -13 32 -13 39 0 20 -39 95 -58 111 -11 9 -30 12
-55 8z m31 -292 c7 -7 12 -20 12 -29 0 -10 8 -32 17 -51 9 -18 22 -45 30 -60
7 -14 13 -35 13 -46 0 -11 7 -25 15 -32 8 -7 15 -22 15 -34 0 -11 7 -30 15
-40 8 -11 15 -27 15 -36 0 -10 11 -39 26 -65 14 -26 24 -57 22 -69 -3 -21 -7
-21 -198 -21 l-195 0 -3 38 c-2 26 1 39 12 43 9 4 16 18 16 34 0 15 7 33 15
40 8 7 15 20 15 29 0 10 7 26 15 37 8 10 15 27 15 37 0 11 6 31 13 45 8 15 21
43 29 62 58 136 62 142 86 118z"/>
<path d="M775 2642 c-22 -21 -62 -55 -90 -77 -27 -22 -59 -49 -70 -60 -11 -11
-46 -42 -77 -68 -74 -62 -77 -89 -15 -140 23 -19 58 -50 78 -69 20 -19 56 -50
80 -68 24 -19 63 -53 87 -75 24 -22 46 -40 49 -40 5 0 49 70 59 95 3 8 10 22
15 30 21 34 22 43 3 57 -10 7 -38 30 -61 50 -24 19 -49 41 -57 47 -32 25 -28
52 11 82 21 16 47 37 58 47 11 11 30 26 43 34 26 18 28 35 7 53 -8 7 -15 21
-15 31 0 11 -4 19 -9 19 -5 0 -14 12 -19 28 -6 15 -16 35 -24 44 -12 16 -16
15 -53 -20z"/>
<path d="M2449 2658 c-8 -13 -25 -44 -37 -70 -13 -26 -27 -50 -33 -53 -13 -9
-11 -45 4 -45 6 0 30 -17 52 -37 22 -19 50 -42 63 -50 14 -10 22 -25 22 -43 0
-18 -8 -33 -22 -43 -13 -8 -41 -31 -63 -51 -22 -20 -46 -36 -52 -36 -15 0 -18
-36 -4 -45 6 -3 20 -27 33 -53 12 -26 29 -57 37 -70 13 -22 15 -22 31 -5 9 10
38 36 65 58 48 40 120 101 141 120 6 6 34 30 62 54 69 58 70 84 5 137 -27 22
-62 52 -79 69 -16 16 -52 48 -80 70 -27 21 -51 42 -54 45 -3 3 -22 20 -41 38
l-36 33 -14 -23z"/>
<path d="M4815 2600 c-27 -10 -67 -34 -89 -54 -22 -20 -43 -36 -48 -36 -7 0
-13 20 -20 64 -3 16 -12 20 -63 21 -33 0 -66 -1 -72 -3 -10 -3 -13 -98 -13
-428 l0 -424 75 0 75 0 0 281 c0 258 2 284 20 324 38 84 127 145 210 145 44 0
120 -30 152 -60 51 -48 53 -56 58 -380 l5 -305 78 -3 77 -3 0 298 c0 259 -3
306 -18 356 -10 31 -24 63 -30 69 -7 7 -12 17 -12 24 0 22 -97 99 -147 117
-65 22 -172 21 -238 -3z"/>
<path d="M6598 2601 c-25 -9 -66 -30 -91 -45 -46 -29 -117 -114 -117 -140 0
-8 -6 -27 -14 -43 -23 -45 -43 -185 -35 -244 16 -127 23 -157 51 -213 58 -120
144 -171 333 -200 38 -6 181 21 217 40 14 8 32 14 40 14 19 0 128 98 128 115
0 17 -73 75 -93 75 -9 0 -20 -6 -24 -13 -20 -33 -87 -69 -162 -88 -77 -20 -83
-21 -130 -5 -28 9 -54 16 -60 16 -17 0 -89 53 -95 70 -3 8 -17 33 -30 55 -29
46 -32 68 -12 88 13 12 67 15 318 15 l303 0 -4 118 c-2 80 -8 125 -17 139 -8
11 -14 28 -14 38 0 10 -17 44 -37 74 -36 55 -97 102 -173 133 -53 21 -224 22
-282 1z m247 -121 c32 -12 115 -95 115 -114 0 -8 7 -27 15 -42 19 -38 19 -88
-1 -108 -13 -14 -49 -16 -238 -16 -159 0 -225 3 -234 12 -17 17 -15 90 3 114
8 10 15 26 15 35 0 22 60 82 107 107 42 23 170 30 218 12z"/>
<path d="M7890 2602 c-25 -8 -49 -17 -55 -19 -5 -2 -23 -12 -40 -23 -16 -11
-35 -22 -41 -26 -8 -3 -4 -20 13 -52 34 -65 38 -68 70 -46 74 50 104 57 224
57 126 0 159 -10 197 -62 23 -32 36 -123 19 -140 -7 -7 -54 -11 -126 -11 -221
-1 -320 -26 -391 -100 -40 -42 -47 -56 -58 -118 -21 -113 6 -215 73 -274 11
-9 24 -17 29 -18 5 0 17 -6 25 -13 28 -23 155 -50 203 -42 102 16 183 47 206
78 7 9 24 17 36 17 19 0 25 -7 30 -35 8 -39 0 -36 129 -40 l67 -2 0 54 c0 44
-3 53 -18 53 -40 0 -42 15 -42 272 0 198 -3 256 -15 285 -8 19 -15 48 -15 64
0 43 -82 119 -152 142 -72 22 -300 22 -368 -1z m398 -477 c2 -16 1 -62 -3
-102 -6 -63 -10 -76 -40 -106 -57 -59 -104 -77 -200 -77 -95 0 -135 15 -179
67 -22 26 -26 41 -26 96 0 76 18 106 83 137 37 17 61 19 202 17 l160 -2 3 -30z"/>
<path d="M830 1907 c-7 -50 -15 -156 -17 -234 l-4 -143 118 0 c65 0 171 8 235
17 l117 17 -6 30 c-3 17 -11 40 -16 51 -6 11 -13 36 -17 55 -5 32 -8 35 -35
30 -17 -2 -68 -5 -115 -5 l-85 0 0 55 c1 30 3 82 5 115 l5 59 -42 7 c-23 4
-50 12 -60 17 -10 5 -30 12 -44 15 -26 7 -26 6 -39 -86z"/>
<path d="M2405 1993 c-11 -2 -36 -10 -55 -18 -19 -7 -48 -16 -63 -20 -29 -6
-29 -6 -21 -58 5 -29 9 -79 9 -112 l0 -60 -75 0 c-41 0 -93 3 -115 5 -39 5
-40 4 -46 -32 -3 -20 -10 -43 -16 -50 -12 -16 -25 -88 -15 -89 4 0 27 -2 52
-3 25 -2 72 -8 105 -14 33 -7 115 -12 183 -12 l122 0 0 128 c0 70 -4 143 -10
162 -7 28 -16 100 -20 173 0 7 -2 7 -35 0z"/>
<path d="M1445 1605 c-22 -13 -59 -34 -82 -46 l-41 -22 50 -60 c27 -33 55 -66
61 -72 7 -7 30 -33 52 -59 22 -27 50 -59 63 -73 12 -14 30 -36 39 -49 11 -17
24 -24 48 -24 28 0 41 10 86 61 30 34 63 72 74 84 11 13 34 39 50 59 17 20 49
58 72 84 35 40 39 48 25 55 -9 4 -30 16 -47 27 -32 21 -96 53 -107 54 -3 1
-20 -17 -38 -39 -84 -106 -93 -115 -116 -115 -13 0 -24 4 -24 9 0 10 -109 145
-119 147 -3 1 -24 -9 -46 -21z"/>
</g>
</svg>
