<?xml version="1.0" standalone="no"?>
<!DOCTYPE svg PUBLIC "-//W3C//DTD SVG 20010904//EN"
 "http://www.w3.org/TR/2001/REC-SVG-20010904/DTD/svg10.dtd">
<svg version="1.0" xmlns="http://www.w3.org/2000/svg"
 width="900.000000pt" height="501.000000pt" viewBox="0 0 900.000000 501.000000"
 preserveAspectRatio="xMidYMid meet">
<metadata>
Created by potrace 1.10, written by Peter Selinger 2001-2011
</metadata>
<g transform="translate(0.000000,501.000000) scale(0.100000,-0.100000)"
fill="#a9a9a9" stroke="none">
<path d="M187 3743 c-4 -3 -7 -380 -7 -837 l0 -831 68 -49 c98 -71 265 -190
386 -276 58 -41 152 -109 210 -150 57 -41 152 -109 210 -150 58 -41 142 -102
186 -134 95 -69 77 -72 238 44 102 74 242 175 377 270 39 27 79 56 90 64 30
22 187 134 208 148 31 22 191 136 202 145 6 4 36 25 68 47 l57 39 -2 836 -3
836 -1141 3 c-627 1 -1144 -1 -1147 -5z m2031 -890 c2 -603 1 -644 -15 -659
-16 -13 -111 -81 -174 -124 -12 -8 -59 -42 -105 -75 -46 -33 -122 -87 -170
-120 -47 -33 -129 -91 -182 -130 -54 -38 -124 -88 -155 -110 -32 -22 -65 -44
-72 -50 -18 -12 -45 4 -177 99 -53 39 -144 105 -202 146 -59 41 -135 95 -170
120 -35 25 -73 52 -86 60 -12 8 -59 42 -104 75 -46 33 -94 67 -106 75 -65 42
-60 -16 -60 688 0 351 3 642 7 645 3 4 403 6 887 5 l881 -3 3 -642z"/>
<path d="M1158 3293 c-8 -10 -22 -31 -31 -48 -46 -89 -70 -134 -89 -165 -11
-19 -37 -64 -56 -100 -20 -36 -46 -83 -59 -105 -12 -22 -27 -49 -33 -60 -5
-11 -25 -47 -45 -80 -19 -33 -46 -82 -60 -110 -14 -27 -35 -66 -47 -85 -11
-19 -36 -64 -55 -99 -19 -35 -43 -78 -54 -95 -34 -56 -33 -56 131 -56 146 0
151 1 160 23 6 12 18 36 28 52 10 17 36 62 57 100 21 39 49 88 61 110 12 22
34 61 47 86 14 25 35 63 47 85 13 21 39 68 58 104 20 36 46 83 59 105 12 22
27 51 33 64 l11 25 23 -25 c13 -13 40 -53 59 -89 47 -88 97 -179 118 -215 10
-16 30 -52 44 -80 14 -27 41 -77 60 -110 19 -33 46 -82 60 -110 53 -102 58
-110 69 -117 18 -12 294 -10 301 3 4 5 0 18 -9 28 -9 10 -16 21 -16 25 0 5
-15 34 -34 65 -19 31 -49 83 -67 116 -35 64 -47 87 -83 150 -12 22 -40 72 -61
110 -21 39 -47 84 -56 100 -10 17 -25 44 -33 60 -8 17 -29 53 -45 80 -17 28
-37 64 -45 80 -35 69 -88 160 -103 177 -14 16 -35 18 -173 18 -137 0 -159 -2
-172 -17z"/>
<path d="M6438 3425 c-6 -6 -88 -29 -163 -46 -71 -16 -97 -42 -57 -56 9 -3 29
-15 45 -25 l27 -19 0 -453 0 -453 23 -19 c26 -24 80 -47 161 -70 43 -12 86
-15 160 -12 86 3 110 8 161 33 73 35 141 101 178 175 28 54 57 189 52 240 -18
167 -33 209 -99 274 -98 99 -261 101 -370 5 -25 -22 -50 -38 -56 -34 -6 4 -10
86 -10 220 0 117 -3 220 -6 229 -6 15 -35 22 -46 11z m251 -488 c25 -12 58
-38 74 -58 33 -43 67 -159 67 -232 0 -73 -30 -186 -63 -237 -44 -69 -71 -85
-144 -85 -57 0 -65 3 -95 33 l-33 32 -3 241 c-2 133 -1 252 2 264 4 17 21 29
59 44 66 25 82 25 136 -2z"/>
<path d="M7810 3420 c-43 -14 -134 -39 -165 -45 -32 -7 -55 -22 -55 -36 0 -4
18 -18 40 -30 l40 -23 0 -127 c0 -125 -6 -153 -29 -125 -7 8 -40 19 -74 25
-91 17 -183 -4 -269 -62 -31 -22 -108 -120 -108 -140 0 -7 -4 -17 -10 -23 -12
-12 -40 -156 -40 -204 0 -46 24 -155 44 -203 22 -50 85 -111 140 -137 71 -32
167 -28 232 10 29 16 61 41 72 55 30 37 41 31 44 -27 3 -50 4 -53 33 -56 16
-2 57 3 90 12 33 8 81 18 107 21 47 6 75 26 63 45 -3 5 -15 10 -26 10 -11 0
-29 5 -40 10 -18 10 -19 27 -19 520 0 279 -3 515 -6 524 -7 17 -24 19 -64 6z
m-210 -425 c15 -8 38 -31 51 -51 21 -34 23 -51 27 -239 6 -245 3 -267 -42
-294 -76 -47 -191 -15 -239 67 -87 147 -74 388 26 487 44 42 126 57 177 30z"/>
<path d="M3077 3296 c-7 -17 12 -36 36 -36 31 0 54 -18 66 -51 16 -48 15 -796
-2 -829 -7 -14 -30 -31 -54 -40 -53 -19 -59 -26 -43 -45 11 -13 63 -15 385
-15 286 0 375 3 382 13 10 13 39 158 48 244 3 32 1 54 -5 58 -13 8 -48 -21
-61 -50 -23 -53 -92 -143 -131 -172 -76 -56 -224 -57 -279 -2 -18 18 -19 37
-19 428 0 457 -2 445 70 460 26 5 36 13 38 29 l3 22 -214 0 c-173 0 -216 -3
-220 -14z"/>
<path d="M4300 3073 c-115 -22 -184 -63 -214 -127 -22 -46 -20 -78 5 -110 20
-25 26 -27 88 -24 l66 3 3 80 c3 91 21 120 78 131 82 15 124 -45 124 -179 0
-86 0 -88 -27 -98 -80 -32 -131 -51 -158 -60 -30 -9 -47 -16 -114 -48 -60 -29
-108 -86 -116 -137 -15 -100 22 -178 101 -214 83 -38 176 -18 264 58 l49 42
22 -40 c30 -54 74 -80 133 -80 49 0 96 18 134 53 32 29 28 37 -21 37 -37 0
-45 4 -60 29 -15 25 -17 61 -17 280 0 231 -2 255 -20 291 -24 46 -63 76 -127
95 -54 16 -155 26 -193 18z m150 -511 l0 -128 -32 -24 c-25 -19 -46 -24 -87
-24 -49 0 -56 3 -82 34 -25 29 -29 43 -29 96 0 56 3 64 35 97 19 19 51 41 72
47 21 7 42 16 48 21 5 5 24 9 42 9 l33 0 0 -128z"/>
<path d="M8330 3070 c-93 -23 -111 -29 -139 -49 -48 -35 -71 -74 -71 -123 0
-24 7 -54 16 -66 13 -19 24 -22 85 -22 38 0 69 3 69 8 1 4 2 42 3 84 3 99 22
123 97 122 81 -1 105 -50 98 -197 l-3 -69 -50 -20 c-27 -11 -66 -26 -85 -33
-123 -46 -191 -80 -222 -113 -61 -64 -74 -143 -35 -222 17 -36 33 -51 77 -73
47 -24 63 -28 110 -24 62 6 118 31 170 76 39 35 60 39 60 14 1 -21 25 -52 60
-76 34 -24 111 -22 162 4 77 40 90 69 30 69 -71 0 -72 4 -72 287 0 230 -2 254
-20 296 -24 53 -66 89 -130 111 -57 19 -164 27 -210 16z m160 -510 l0 -129
-32 -22 c-46 -33 -129 -33 -159 0 -41 44 -47 152 -11 196 21 26 97 67 157 85
42 13 45 4 45 -130z"/>
<path d="M5065 3061 c-11 -5 -45 -16 -75 -24 -120 -35 -132 -40 -137 -54 -3
-8 4 -21 18 -31 62 -43 59 -28 59 -314 0 -234 -2 -265 -18 -285 -9 -12 -28
-23 -42 -25 -17 -2 -25 -9 -25 -23 0 -19 7 -20 180 -20 173 0 180 1 180 20 0
12 -8 21 -20 23 -11 2 -30 13 -42 25 -23 20 -23 24 -23 277 l0 256 28 20 c33
25 105 54 133 54 33 0 78 -28 94 -60 12 -24 15 -76 15 -283 0 -229 -2 -255
-17 -270 -10 -8 -29 -17 -43 -19 -17 -2 -25 -9 -25 -23 0 -19 7 -20 180 -20
173 0 180 1 180 20 0 14 -8 21 -25 23 -48 6 -50 17 -50 298 l0 263 26 20 c15
11 50 28 78 37 49 16 55 15 90 -1 20 -10 42 -27 49 -39 8 -14 13 -100 15 -274
4 -274 0 -297 -50 -304 -15 -2 -23 -10 -23 -23 0 -19 7 -20 180 -20 173 0 180
1 180 20 0 14 -8 21 -25 23 -14 2 -33 11 -42 19 -16 15 -18 42 -18 293 l0 276
-27 55 c-38 73 -90 101 -183 96 -77 -3 -141 -31 -203 -88 -45 -41 -67 -49 -67
-23 0 26 -51 84 -88 100 -42 17 -120 18 -176 2 -22 -6 -69 -33 -104 -60 -34
-27 -67 -46 -73 -42 -6 4 -8 20 -4 41 12 64 -8 84 -60 64z"/>
</g>
</svg>
