<?xml version="1.0" standalone="no"?>
<!DOCTYPE svg PUBLIC "-//W3C//DTD SVG 20010904//EN"
 "http://www.w3.org/TR/2001/REC-SVG-20010904/DTD/svg10.dtd">
<svg version="1.0" xmlns="http://www.w3.org/2000/svg"
 width="300.000000pt" height="140.000000pt" viewBox="0 0 300.000000 140.000000"
 preserveAspectRatio="xMidYMid meet">
<metadata>
Created by potrace 1.10, written by Peter Selinger 2001-2011
</metadata>
<g transform="translate(0.000000,140.000000) scale(0.050000,-0.050000)"
fill="#a9a9a9" stroke="none">
<path d="M3200 1480 l0 -380 50 0 c49 0 50 3 50 160 l0 160 90 0 c109 0 145
-31 230 -199 53 -106 160 -179 160 -111 0 28 -140 285 -168 308 -28 24 -27 33
18 86 155 184 20 356 -279 356 l-151 0 0 -380z m327 259 c124 -98 38 -239
-146 -239 l-81 0 0 140 0 140 87 0 c58 0 105 -14 140 -41z"/>
<path d="M5720 1748 c0 -55 -9 -74 -40 -82 -22 -6 -40 -22 -40 -36 0 -14 18
-30 40 -36 37 -9 40 -27 40 -207 1 -250 26 -287 199 -287 121 0 119 75 -3 84
-101 7 -121 57 -112 272 l6 134 95 6 c65 4 95 15 95 34 0 19 -30 30 -95 34
-94 6 -95 7 -101 81 -9 108 -84 110 -84 3z"/>
<path d="M3990 1662 c-196 -86 -212 -436 -24 -536 119 -63 374 -31 374 47 0
26 -13 29 -75 15 -186 -41 -307 5 -330 124 l-9 48 217 0 217 0 0 51 c0 187
-203 325 -370 251z m229 -115 c73 -93 58 -107 -119 -107 -145 0 -160 4 -160
39 0 110 206 161 279 68z"/>
<path d="M4565 1660 c-68 -29 -62 -106 6 -80 88 34 205 24 249 -20 73 -73 53
-100 -77 -100 -227 0 -353 -188 -214 -319 62 -59 210 -67 267 -14 46 41 64 42
64 2 0 -22 15 -30 45 -25 84 12 74 409 -13 510 -51 58 -237 85 -327 46z m287
-345 c-26 -130 -170 -197 -250 -117 -93 93 -19 182 151 182 l112 0 -13 -65z"/>
<path d="M5242 1646 c-175 -86 -185 -390 -18 -513 95 -69 336 -49 336 29 0 33
-9 38 -45 28 -25 -7 -61 -18 -80 -23 -129 -36 -247 93 -229 251 18 157 158
225 319 153 27 -12 35 -6 35 27 0 81 -191 110 -318 48z"/>
</g>
</svg>
